<svg width="34" height="34" viewBox="0 0 34 34" fill="none" xmlns="http://www.w3.org/2000/svg">
<path fill-rule="evenodd" clip-rule="evenodd" d="M23.375 23.375H8.5C8.5 23.375 2.08463 22.7173 2.125 17C2.14731 13.7743 5.11381 10.8906 8.5 10.625C8.5 6.22412 11.3167 2.125 15.9375 2.125C19.5851 2.125 22.0182 4.35198 22.8852 7.45235C28.1488 7.22285 31.7092 11.3879 31.875 14.875C32.0981 19.5638 27.2011 23.375 23.375 23.375ZM24.5087 5.34227C22.9489 2.18133 19.7019 0 15.9375 0C10.8906 0 6.76813 3.91209 6.41007 8.86653C2.70088 9.92372 0 13.1644 0 17C0 21.5263 3.76125 25.2142 8.5 25.4756C8.5 25.4756 23.1954 25.5 23.375 25.5C28.9499 25.5 34 20.9812 34 15.4062C34 10.0353 29.801 5.6557 24.5087 5.34227ZM26.5625 28.6875C25.976 28.6875 25.5 29.1624 25.5 29.75V32.9375C25.5 33.5251 25.976 34 26.5625 34C27.149 34 27.625 33.5251 27.625 32.9375V29.75C27.625 29.1624 27.149 28.6875 26.5625 28.6875ZM20.1875 28.6875C19.601 28.6875 19.125 29.1624 19.125 29.75V32.9375C19.125 33.5251 19.601 34 20.1875 34C20.774 34 21.25 33.5251 21.25 32.9375V29.75C21.25 29.1624 20.774 28.6875 20.1875 28.6875ZM7.4375 28.6875C6.851 28.6875 6.375 29.1624 6.375 29.75V32.9375C6.375 33.5251 6.851 34 7.4375 34C8.024 34 8.5 33.5251 8.5 32.9375V29.75C8.5 29.1624 8.024 28.6875 7.4375 28.6875ZM13.8125 28.6875C13.226 28.6875 12.75 29.1624 12.75 29.75V32.9375C12.75 33.5251 13.226 34 13.8125 34C14.399 34 14.875 33.5251 14.875 32.9375V29.75C14.875 29.1624 14.399 28.6875 13.8125 28.6875Z" fill="#65555C"/>
</svg>
