<svg width="54" height="54" viewBox="0 0 54 54" fill="none" xmlns="http://www.w3.org/2000/svg">
<path d="M41.1507 6.50196C38.8384 6.19108 35.7903 6.1875 31.5 6.1875C30.568 6.1875 29.8125 5.43197 29.8125 4.5C29.8125 3.56803 30.568 2.8125 31.5 2.8125H31.6269C35.762 2.81246 39.0371 2.81243 41.6002 3.15707C44.2384 3.51171 46.3734 4.25898 48.0573 5.94279C49.5972 7.48278 50.4382 8.94746 50.8329 11.2095C51.1877 13.2428 51.1877 15.9851 51.1875 20.0333V20.25C51.1875 21.182 50.4319 21.9375 49.5 21.9375C48.568 21.9375 47.8125 21.182 47.8125 20.25C47.8125 15.9321 47.806 13.4969 47.5081 11.7896C47.2439 10.275 46.7667 9.42534 45.6707 8.32928C44.7185 7.37705 43.4142 6.80632 41.1507 6.50196Z" fill="#65555C"/>
<path d="M6.18753 33.75C6.18753 32.818 5.432 32.0625 4.50003 32.0625C3.56803 32.0625 2.81253 32.818 2.81253 33.75L2.8125 33.9667C2.81239 38.0149 2.81232 40.7572 3.16715 42.7905C3.56184 45.0524 4.40283 46.5172 5.94282 48.0573C7.62663 49.741 9.76176 50.4882 12.3997 50.843C14.963 51.1875 18.2381 51.1875 22.3731 51.1875H22.5C23.432 51.1875 24.1875 50.4319 24.1875 49.5C24.1875 48.568 23.432 47.8125 22.5 47.8125C18.2097 47.8125 15.1617 47.8089 12.8494 47.498C10.5857 47.1938 9.28152 46.6229 8.3293 45.6707C7.23324 44.5747 6.75619 43.7249 6.49191 42.2105C6.19401 40.5031 6.18753 38.068 6.18753 33.75Z" fill="#65555C"/>
<path d="M51.1875 33.75C51.1875 32.818 50.4319 32.0625 49.5 32.0625C48.568 32.0625 47.8125 32.818 47.8125 33.75C47.8125 38.068 47.806 40.5031 47.5081 42.2105C47.2439 43.7249 46.7667 44.5747 45.6707 45.6707C44.7185 46.6229 43.4142 47.1938 41.1507 47.498C38.8384 47.8089 35.7903 47.8125 31.5 47.8125C30.568 47.8125 29.8125 48.568 29.8125 49.5C29.8125 50.4319 30.568 51.1875 31.5 51.1875H31.6269C35.762 51.1875 39.0371 51.1875 41.6002 50.843C44.2384 50.4882 46.3734 49.741 48.0573 48.0573C49.5972 46.5172 50.4382 45.0524 50.8329 42.7905C51.1877 40.7572 51.1877 38.0149 51.1875 33.9667V33.75Z" fill="#65555C"/>
<path d="M22.5 2.8125H22.3731C18.2381 2.81246 14.9629 2.81243 12.3997 3.15707C9.76176 3.51171 7.62663 4.25898 5.94282 5.94279C4.40283 7.48278 3.56184 8.94746 3.16715 11.2095C2.81232 13.2428 2.81239 15.9851 2.8125 20.0332L2.81253 20.25C2.81253 21.182 3.56803 21.9375 4.50003 21.9375C5.432 21.9375 6.18753 21.182 6.18753 20.25C6.18753 15.9321 6.19401 13.4969 6.49191 11.7896C6.75619 10.275 7.23324 9.42534 8.3293 8.32928C9.28152 7.37705 10.5857 6.80632 12.8494 6.50196C15.1617 6.19108 18.2097 6.1875 22.5 6.1875C23.432 6.1875 24.1875 5.43197 24.1875 4.5C24.1875 3.56803 23.432 2.8125 22.5 2.8125Z" fill="#65555C"/>
<path fill-rule="evenodd" clip-rule="evenodd" d="M27 20.8125C23.5827 20.8125 20.8125 23.5827 20.8125 27C20.8125 30.4173 23.5827 33.1875 27 33.1875C30.4173 33.1875 33.1875 30.4173 33.1875 27C33.1875 23.5827 30.4173 20.8125 27 20.8125ZM24.1875 27C24.1875 25.4466 25.4466 24.1875 27 24.1875C28.5534 24.1875 29.8125 25.4466 29.8125 27C29.8125 28.5534 28.5534 29.8125 27 29.8125C25.4466 29.8125 24.1875 28.5534 24.1875 27Z" fill="#65555C"/>
<path fill-rule="evenodd" clip-rule="evenodd" d="M11.9799 21.2636C14.8373 17.9491 19.7468 14.0625 27 14.0625C34.2531 14.0625 39.1628 17.9491 42.0201 21.2636L42.0928 21.3478C42.7025 22.0545 43.3296 22.7812 43.7605 23.6522C44.2422 24.6258 44.4375 25.6712 44.4375 27C44.4375 28.3288 44.2422 29.3742 43.7605 30.3478C43.3296 31.2188 42.7025 31.9455 42.0928 32.6522L42.0201 32.7364C39.1628 36.0509 34.2531 39.9375 27 39.9375C19.7468 39.9375 14.8373 36.0509 11.9799 32.7364L11.9073 32.6522C11.2975 31.9455 10.6704 31.2188 10.2395 30.3478C9.75772 29.3742 9.56253 28.3288 9.56253 27C9.56253 25.6712 9.75772 24.6258 10.2395 23.6522C10.6704 22.7812 11.2975 22.0545 11.9072 21.3478L11.9799 21.2636ZM27 17.4375C21.0803 17.4375 17.0245 20.5809 14.5361 23.4673C13.8297 24.2867 13.4858 24.7016 13.2645 25.1489C13.077 25.5278 12.9375 26.0235 12.9375 27C12.9375 27.9765 13.077 28.4722 13.2645 28.8511C13.4858 29.2984 13.8297 29.7133 14.5361 30.5327C17.0245 33.419 21.0803 36.5625 27 36.5625C32.9198 36.5625 36.9756 33.419 39.4639 30.5327C40.1704 29.7133 40.5142 29.2984 40.7356 28.8511C40.923 28.4722 41.0625 27.9765 41.0625 27C41.0625 26.0235 40.923 25.5278 40.7356 25.1489C40.5142 24.7016 40.1704 24.2867 39.4639 23.4673C36.9756 20.5809 32.9198 17.4375 27 17.4375Z" fill="#65555C"/>
</svg>
