<svg width="30" height="34" viewBox="0 0 30 34" fill="none" xmlns="http://www.w3.org/2000/svg">
<path d="M20.25 2.7778H29M20.25 9.88899H29M23.75 17.0002H29M8 24.111C7.03351 24.111 6.25 24.9069 6.25 25.8888C6.25 26.8707 7.03351 27.6666 8 27.6666C8.96649 27.6666 9.75 26.8707 9.75 25.8888C9.75 24.9069 8.96649 24.111 8 24.111ZM8 24.111V11.6668M8 25.8888L8.01237 25.9014M15 25.8888C15 29.8163 11.8659 33 8 33C4.134 33 1 29.8163 1 25.8888C1 24.0854 1.66087 22.4386 2.75 21.1851V6.33339C2.75 3.38785 5.10051 1 8 1C10.8995 1 13.25 3.38785 13.25 6.33339V21.1851C14.3392 22.4386 15 24.0854 15 25.8888Z" stroke="#65555C" stroke-width="2" stroke-linecap="round" stroke-linejoin="round"/>
</svg>
