<svg width="33" height="33" viewBox="0 0 33 33" fill="none" xmlns="http://www.w3.org/2000/svg">
<path d="M16.5 12.375C15.7406 12.375 15.125 12.9906 15.125 13.75V20.993C14.303 21.4684 13.75 22.3571 13.75 23.375C13.75 24.8938 14.9812 26.125 16.5 26.125C18.0188 26.125 19.25 24.8938 19.25 23.375C19.25 22.3571 18.697 21.4684 17.875 20.993V13.75C17.875 12.9906 17.2594 12.375 16.5 12.375Z" fill="#65555C"/>
<path d="M15.125 8.25C15.125 7.49061 15.7406 6.875 16.5 6.875C17.2594 6.875 17.875 7.49061 17.875 8.25C17.875 9.00938 17.2594 9.625 16.5 9.625C15.7406 9.625 15.125 9.00938 15.125 8.25Z" fill="#65555C"/>
<path d="M22 9.625C21.2406 9.625 20.625 10.2406 20.625 11C20.625 11.7594 21.2406 12.375 22 12.375C22.7594 12.375 23.375 11.7594 23.375 11C23.375 10.2406 22.7594 9.625 22 9.625Z" fill="#65555C"/>
<path d="M8.25 17.875C7.49061 17.875 6.875 17.2594 6.875 16.5C6.875 15.7406 7.49061 15.125 8.25 15.125C9.00938 15.125 9.625 15.7406 9.625 16.5C9.625 17.2594 9.00938 17.875 8.25 17.875Z" fill="#65555C"/>
<path d="M9.625 11C9.625 11.7594 10.2406 12.375 11 12.375C11.7594 12.375 12.375 11.7594 12.375 11C12.375 10.2406 11.7594 9.625 11 9.625C10.2406 9.625 9.625 10.2406 9.625 11Z" fill="#65555C"/>
<path d="M24.75 17.875C23.9906 17.875 23.375 17.2594 23.375 16.5C23.375 15.7406 23.9906 15.125 24.75 15.125C25.5094 15.125 26.125 15.7406 26.125 16.5C26.125 17.2594 25.5094 17.875 24.75 17.875Z" fill="#65555C"/>
<path fill-rule="evenodd" clip-rule="evenodd" d="M16.5 31.625C24.8533 31.625 31.625 24.8533 31.625 16.5C31.625 8.1467 24.8533 1.375 16.5 1.375C8.1467 1.375 1.375 8.1467 1.375 16.5C1.375 24.8533 8.1467 31.625 16.5 31.625ZM16.5 28.8656C9.67066 28.8656 4.13439 23.3293 4.13439 16.5C4.13439 9.67066 9.67066 4.13439 16.5 4.13439C23.3293 4.13439 28.8656 9.67066 28.8656 16.5C28.8656 23.3293 23.3293 28.8656 16.5 28.8656Z" fill="#65555C"/>
</svg>
