<svg width="32" height="30" viewBox="0 0 32 30" fill="none" xmlns="http://www.w3.org/2000/svg">
<path d="M21.855 6.875C22.7094 5.87766 23.9512 5.25 25.3333 5.25C27.9107 5.25 30 7.43262 30 10.125C30 12.8175 27.9107 15 25.3333 15H2M10.57 3.08334C11.1396 2.41844 11.9675 2 12.8889 2C14.6072 2 16 3.45507 16 5.25C16 7.04493 14.6072 8.5 12.8889 8.5H2M15.2367 26.9166C15.8063 27.5816 16.6342 28 17.5556 28C19.2738 28 20.6667 26.545 20.6667 24.75C20.6667 22.955 19.2738 21.5 17.5556 21.5H2" stroke="#65555C" stroke-width="3" stroke-linecap="round" stroke-linejoin="round"/>
</svg>
